<?xml version="1.0" encoding="UTF-8"?><svg id="Layer_2" xmlns="http://www.w3.org/2000/svg" viewBox="0 0 585.74805 104.10449"><defs><style>.cls-1{fill:#e72564;}</style></defs><g id="content"><path class="cls-1" d="m160.05469,4.49658h31.64771c16.25464,0,27.28906,9.14795,27.28906,23.68896,0,16.61865-12.58423,24.24365-27.67505,24.24365h-14.70679v28.56836h-16.55493V4.49658Zm16.55493,34.76514h12.62427c7.65454,0,13.06519-2.9458,13.06519-10.75684,0-7.89062-5.70752-10.84131-12.71899-10.84131h-12.97046v21.59814Z"/><path class="cls-1" d="m242.34985,23.56299c5.93237,19.81787,11.10791,37.50244,12.01733,42.81055h.11084c1.24243-5.79199,4.60645-18.66357,11.4624-42.81055h15.8313l-19.29785,59.08936c-5.49023,16.52002-10.07104,21.45166-23.86719,21.45166-1.41113,0-4.69629-.11084-7.44849-.43018v-12.77686c1.07837.12451,2.82715.23535,4.11401.23535,5.84033,0,8.7832-2.02783,10.93506-8.37744l-20.90063-59.19189h17.04321Z"/><path class="cls-1" d="m339.5,0v65.21436c0,5.22852,0,10.52832.11084,15.7832h-15.28979c-.31958-1.72217-.62598-4.69092-.72363-5.99951-2.77393,4.52197-7.71802,7.33105-16.29712,7.33105-14.52271,0-23.76392-11.66406-23.76392-29.57861,0-17.67383,9.82251-30.51904,26.08545-30.51904,8.26343,0,12.7019,2.91553,13.97559,5.48926V0h15.90259Zm-39.63062,52.3335c0,11.19678,4.36182,17.25879,12.14624,17.25879,10.93506,0,12.19458-9.12061,12.19458-17.37354,0-9.8208-1.38867-17.25049-11.78198-17.25049-8.3479,0-12.55884,6.51904-12.55884,17.36523Z"/><path class="cls-1" d="m398.57226,66.1582c0,5.46826.44385,13.45459.77661,14.83936h-15.19189c-.44385-1.13623-.77686-4.16357-.80347-5.61377-2.08179,3.22656-5.98706,6.94531-16.14624,6.94531-13.84863,0-19.6897-9.10352-19.6897-18.01172,0-13.08496,10.50635-19.12158,27.34595-19.12158h8.19702v-3.51025c0-4.08252-1.46899-8.09814-8.84399-8.09814-6.71362,0-8.18262,2.85254-8.91479,7.01172h-15.12109c.86108-10.20605,7.17358-18.46533,24.6355-18.36768,15.38477.09766,23.7561,6.10742,23.7561,19.77881v24.14795Zm-15.49854-11.30713h-6.47852c-9.58154,0-13.13525,2.92529-13.13525,8.46289,0,4.15771,2.55103,7.65918,8.26709,7.65918,10.10425,0,11.34668-7.0249,11.34668-14.61279v-1.50928Z"/><path class="cls-1" d="m408.6272,38.03271c0-4.88232,0-10.22656-.11108-14.46973h15.40088c.31958,1.48242.52832,5.47119.61255,7.31787,1.95288-3.60791,6.59985-8.64941,16.66138-8.64941,11.53638,0,19.03247,7.79492,19.03247,22.22852v36.5376h-15.90259v-34.771c0-6.45654-2.15186-11.13428-9.16821-11.13428-6.75732,0-10.62305,3.75684-10.62305,13.89795v32.00732h-15.90234v-42.96484Z"/><path class="cls-1" d="m465.41431,23.56299h8.85425v-15.55176h15.90259v15.55176h11.25073v11.95508h-11.25073v28.3457c0,4.35791,1.33154,6.05273,6.07153,6.05273.88306,0,2.43164-.01318,3.62109-.17725v10.93848c-3.15625,1.06982-7.47998,1.09668-10.68945,1.09668-11.2041,0-14.90576-5.99316-14.90576-16.04199v-30.21436h-8.85425v-11.95508Z"/><path class="cls-1" d="m510.28223,0h15.90234v14.18213h-15.90234V0Zm0,23.56299h15.90234v57.43457h-15.90234V23.56299Z"/><path class="cls-1" d="m585.74805,62.43945c-1.97949,9.56934-8.70825,19.88965-25.82471,19.88965-17.87524,0-27.06714-12.37061-27.06714-29.63135,0-16.96045,10.34692-30.46631,27.83057-30.46631,19.36694,0,24.74634,13.89404,25.06128,20.39111h-15.52515c-.98047-4.67725-3.63428-7.94727-9.84253-7.94727-7.26855,0-11.38647,6.37207-11.38647,17.50732,0,12.22754,4.35791,17.80029,11.32007,17.80029,5.46289,0,8.3916-3.22607,9.81128-7.54346h15.6228Z"/><path class="cls-1" d="m119.18234,78.64338l-21.16153-29.34629c-.0009-.0009-.00135-.0018-.00225-.00361L63.7734,1.8019c-1.73517-2.40254-5.75563-2.40254-7.49079,0L22.0397,49.28987c-.0009.0018-.00225.0018-.00316.00361L.87186,78.64338c-.86127,1.19766-1.10116,2.73081-.64482,4.13049.45634,1.40328,1.55299,2.49994,2.95357,2.95808l55.40984,18.14167c.0018,0,.00316,0,.00496.0009.4622.15061.94514.22997,1.43169.22997s.96949-.07936,1.43169-.22997c.0018-.0009.00316-.0009.00496-.0009l55.40984-18.14167c1.40058-.45814,2.49723-1.55479,2.95357-2.95808.45634-1.39968.21644-2.93283-.64482-4.13049ZM60.028,12.39687l22.20723,30.80008-20.77058-6.79997c-.15782-.05231-.32467-.04329-.48655-.07756-.16369-.03607-.3161-.06133-.48249-.07756-.15737-.01623-.30979-.07576-.46761-.07576s-.31069.05952-.46806.07576c-.16729.01623-.31881.04149-.48339.07756-.16053.03427-.32737.02525-.4843.07756h-.0018l-20.63665,6.75668-.13302.04329,22.20723-30.80008Zm-31.37997,43.51982l24.18499-7.91827,2.57659-.84413v45.96203l-43.35207-14.19517,16.59049-23.00446Zm35.99656,37.19963v-45.96203l26.76158,8.7624,16.59049,23.00446-43.35207,14.19517Z"/></g></svg>